<svg width="163" height="52" viewBox="0 0 163 52" fill="none" xmlns="http://www.w3.org/2000/svg">
<g clip-path="url(#clip0)">
<path d="M163 35.3694H110.532V52H163V35.3694Z" fill="white"/>
<path d="M116.631 49V38.3077H118.928V46.9231H122.986V49H116.631Z" fill="#222222"/>
<path d="M133.026 49L132.26 46.4615H128.738L127.973 49H125.599L129.121 38.3846H131.954L135.399 49H133.026ZM130.499 40.4615L129.274 44.5384H131.724L130.499 40.4615Z" fill="#222222"/>
<path d="M138.549 38.3077H143.678C144.597 38.3077 145.21 38.5384 145.746 39.0769C146.205 39.5384 146.511 40.2308 146.511 41.0769C146.511 41.4615 146.435 41.8461 146.358 42.0769C146.282 42.3077 146.128 42.6154 145.899 42.7692C145.669 42.9231 145.516 43.0769 145.286 43.1538C145.057 43.2308 144.827 43.3077 144.521 43.3077V43.3846C144.75 43.3846 145.057 43.4615 145.286 43.5384C145.516 43.6154 145.822 43.7692 146.052 44C146.282 44.2308 146.511 44.4615 146.664 44.7692C146.818 45.0769 146.894 45.4615 146.894 45.9231C146.894 46.3077 146.818 46.7692 146.664 47.0769C146.511 47.4615 146.358 47.7692 146.128 48.0769C145.899 48.3846 145.593 48.5384 145.286 48.6923C144.98 48.8461 144.597 48.9231 144.214 48.9231H138.625V38.3077H138.549ZM140.846 42.6923H143.143C143.449 42.6923 143.678 42.6154 143.832 42.4615C143.985 42.3077 144.061 42.0769 144.061 41.7692V41.3077C144.061 41 143.985 40.7692 143.832 40.6154C143.678 40.4615 143.449 40.3846 143.143 40.3846H140.846V42.6923ZM140.846 47H143.525C143.832 47 144.061 46.9231 144.214 46.7692C144.368 46.6154 144.444 46.3846 144.444 46.0769V45.5384C144.444 45.2308 144.368 45 144.214 44.8461C144.061 44.6923 143.832 44.6154 143.525 44.6154H140.846V47Z" fill="#222222"/>
<path d="M153.719 49.1538C152.8 49.1538 152.034 49 151.345 48.6923C150.656 48.3846 150.12 47.923 149.661 47.4615L151.192 45.923C151.881 46.6923 152.8 47.1538 153.872 47.1538C154.408 47.1538 154.867 47 155.097 46.7692C155.403 46.5384 155.479 46.2307 155.479 45.8461C155.479 45.5384 155.403 45.3077 155.25 45.0769C155.097 44.8461 154.79 44.7692 154.254 44.6923L153.183 44.5384C152.034 44.3846 151.269 44.0769 150.733 43.5384C150.197 43 149.967 42.3077 149.967 41.3846C149.967 40.923 150.044 40.4615 150.273 40.0769C150.426 39.6923 150.733 39.3077 151.039 39.0769C151.345 38.7692 151.804 38.5384 152.264 38.3846C152.723 38.2307 153.336 38.1538 153.948 38.1538C154.714 38.1538 155.479 38.3077 156.092 38.5384C156.704 38.7692 157.24 39.1538 157.623 39.6923L156.092 41.2307C155.862 40.923 155.556 40.6923 155.173 40.5384C154.79 40.3846 154.331 40.2307 153.795 40.2307C153.259 40.2307 152.876 40.3077 152.647 40.5384C152.417 40.7692 152.264 41 152.264 41.3077C152.264 41.6923 152.34 41.923 152.57 42.0769C152.8 42.2307 153.106 42.3846 153.565 42.4615L154.637 42.6154C155.709 42.7692 156.551 43.1538 157.087 43.6154C157.623 44.1538 157.853 44.8461 157.853 45.7692C157.853 46.3077 157.776 46.7692 157.547 47.1538C157.393 47.6154 157.087 47.923 156.781 48.2307C156.475 48.5384 156.015 48.7692 155.479 48.923C154.944 49.0769 154.331 49.1538 153.719 49.1538Z" fill="#222222"/>
<path d="M3.90465 0L13.7046 2.76923L23.5045 0L27.4091 1.07692V26.4615L23.5045 27.5385L13.7046 24.7692L3.90465 27.5385L0 26.4615V1.07692L3.90465 0ZM7.8093 18.9231L13.7046 17.3077L19.5998 18.9231V8.61538L13.7046 10.2308L7.8093 8.61538V18.9231Z" fill="#EF4066"/>
<path d="M13.7046 4.92306V10.3077L23.5045 7.53844V27.5384L27.4091 26.4615V1.0769L13.7046 4.92306Z" fill="#AE132A"/>
<path d="M7.80931 21.1538L13.7046 19.4615V24.8461L3.90466 27.5384V7.53845L7.80931 8.61537V21.1538Z" fill="#AE132A"/>
<path d="M3.90465 0L0 1.07692L13.7046 4.92308L27.4091 1.07692L23.5045 0L13.7046 2.76923L3.90465 0Z" fill="#F16B81"/>
<path d="M13.7046 17.3077L7.80933 18.9231V21.1539L13.7046 19.4616L19.5998 21.1539V18.9231L13.7046 17.3077Z" fill="#F16B81"/>
<path d="M40.5012 22.4615V15.6923L40.2715 11.7692L40.4247 11.6923L41.9559 15.2308L45.7074 22L49.3824 15.2308L50.9136 11.6923L51.0668 11.7692L50.9136 15.6923V22.4615H54.8183V5.76923H50.3777L45.7074 14.7692H45.6309L40.9606 5.76923H36.52V22.4615H40.5012Z" fill="white"/>
<path d="M156.109 18.2308C156.109 21 157.564 22.4616 160.397 22.4616H162.847V19.0769H160.244V11.7693H163.077V8.38464H159.938V5.15387H156.186V18.2308H156.109Z" fill="white"/>
<path d="M155.038 8.38464C155.038 8.38464 154.961 8.38464 154.349 8.38464C152.052 8.38464 150.98 9.92311 150.597 11C150.521 11 150.444 11 150.444 11V8.38464H146.386V22.4616H150.444C150.444 22.4616 150.444 14.6923 150.444 14.4616C150.444 13.6154 150.75 13.077 151.133 12.6923C151.822 12 153.277 11.8462 154.961 11.8462C155.038 10.3846 155.038 8.38464 155.038 8.38464Z" fill="white"/>
<path d="M114.843 8.38464C114.843 8.38464 114.766 8.38464 114.154 8.38464C111.857 8.38464 110.785 9.92311 110.402 11C110.325 11 110.249 11 110.249 11V8.38464H106.191V22.4616H110.249C110.249 22.4616 110.249 14.6923 110.249 14.4616C110.249 13.6154 110.555 13.077 110.938 12.6923C111.627 12 113.082 11.8462 114.766 11.8462C114.843 10.3846 114.843 8.38464 114.843 8.38464Z" fill="white"/>
<path d="M91.032 15.6154C91.032 11 93.482 8.07697 97.7694 8.07697C102.516 8.07697 104.507 11.5385 104.507 15.4616V16.6924H95.2429V16.8462C95.2429 18.4616 96.0851 19.6154 98.4585 19.6154C100.143 19.6154 101.062 18.8462 101.98 17.8462L104.047 20.3847C102.746 21.8462 100.679 22.7693 97.9991 22.7693C93.482 22.7693 91.032 20.2308 91.032 15.6154ZM95.2429 14V14.2308H100.296V14C100.296 12.2308 99.5303 11.077 97.846 11.077C96.2382 11.077 95.2429 12.2308 95.2429 14Z" fill="white"/>
<path d="M131.15 15.6154C131.15 10.9231 133.677 8.07697 137.888 8.07697C142.099 8.07697 144.625 11 144.625 15.6154C144.625 20.3077 142.099 22.7693 137.888 22.7693C133.677 22.7693 131.15 20.3077 131.15 15.6154ZM140.414 16.6924V14.1539C140.414 12.3077 139.496 11.3077 137.888 11.3077C136.28 11.3077 135.361 12.3847 135.361 14.1539V16.6924C135.361 18.5385 136.28 19.5385 137.888 19.5385C139.496 19.5385 140.414 18.4616 140.414 16.6924Z" fill="white"/>
<path d="M87.1274 5.15387H83.4524V6.84618C83.4524 7.84618 83.1462 8.38464 81.9977 8.38464H81.0024V11.7693H83.0696V18.2308C83.0696 21 84.5243 22.4616 87.3571 22.4616H89.807V19.0769H87.2039V11.7693H90.0367V8.38464H87.2039V5.15387H87.1274Z" fill="white"/>
<path d="M77.0212 5.15387H73.3462V6.84618C73.3462 7.84618 73.04 8.38464 71.8915 8.38464H70.8962V11.7693H72.9634V18.2308C72.9634 21 74.4181 22.4616 77.2509 22.4616H79.7008V19.0769H77.0977V11.7693H79.9305V8.38464H77.0977V5.15387H77.0212Z" fill="white"/>
<path d="M124.183 8.07697C122.346 8.07697 120.738 9.23081 120.279 10.8462H120.202V8.38466H116.144V26.6924H120.202V20H120.355C120.738 21.5385 122.346 22.7693 124.26 22.7693C127.935 22.7693 129.772 20.5385 129.772 15.6154C129.696 10.6923 127.858 8.07697 124.183 8.07697ZM125.485 16.8462C125.485 18.6924 124.336 19.3847 122.805 19.3847C121.274 19.3847 120.126 18.6154 120.126 17.2308V13.3847C120.126 12.077 121.274 11.2308 122.805 11.2308C124.336 11.2308 125.485 12.3847 125.485 14.2308V16.8462Z" fill="white"/>
<path d="M68.3697 22.4615C66.915 22.4615 65.8431 21.4615 65.6134 19.9231H65.4603C65.001 21.7692 63.3932 22.7692 61.2494 22.7692C58.3401 22.7692 56.8088 21.0769 56.8088 18.5385C56.8088 15.4615 59.1823 14 63.0103 14H65.3072V13.5385C65.3072 12.1538 64.6181 11.2308 62.9338 11.2308C61.326 11.2308 60.4838 12.0769 59.7947 12.9231L57.2682 10.7692C58.4166 9.07692 60.101 8 63.0869 8C67.1447 8 69.2118 9.84615 69.2118 13.3077V19H70.59V22.3846H68.3697V22.4615ZM65.2306 18V16.3077H63.24C61.7088 16.3077 60.8666 16.9231 60.8666 17.9231V18.3077C60.8666 19.3846 61.5557 19.8462 62.7807 19.8462C64.0822 19.9231 65.2306 19.3846 65.2306 18Z" fill="white"/>
</g>
<defs>
<clipPath id="clip0">
<rect width="163" height="52" fill="white"/>
</clipPath>
</defs>
</svg>
